<svg width="23" height="18" viewBox="0 0 23 18" fill="none" xmlns="http://www.w3.org/2000/svg">
<rect width="23" height="18" fill="#DBDBDB"/>
<rect width="1440" height="5750" transform="translate(-196 -638)" fill="#202020"/>
<rect x="-100" y="-4" width="293.571" height="57" rx="4" fill="#9D9D9D"/>
<path d="M-14.1776 31H-12.2696V25.942C-12.2696 25.174 -12.1586 24.562 -11.9366 24.106C-11.7086 23.644 -11.4086 23.311 -11.0366 23.107C-10.6646 22.903 -10.2536 22.801 -9.80359 22.801C-9.28759 22.801 -8.86759 22.906 -8.54359 23.116C-8.21959 23.326 -7.97059 23.602 -7.79659 23.944C-7.62259 24.286 -7.50559 24.658 -7.44559 25.06C-7.37959 25.456 -7.34659 25.843 -7.34659 26.221V31H-5.43859V25.6C-5.43859 25.3 -5.46559 24.952 -5.51959 24.556C-5.57359 24.16 -5.67559 23.755 -5.82559 23.341C-5.97559 22.927 -6.19459 22.546 -6.48259 22.198C-6.76459 21.844 -7.13359 21.559 -7.58959 21.343C-8.04559 21.127 -8.60959 21.019 -9.28159 21.019C-9.98359 21.019 -10.6076 21.145 -11.1536 21.397C-11.6936 21.649 -12.1406 21.997 -12.4946 22.441V18.04H-14.1776V31ZM-2.91437 19.687H-1.03337V17.86H-2.91437V19.687ZM-2.91437 31H-1.03337V21.28H-2.91437V31ZM8.5903 32.89C9.1123 32.89 9.6253 32.836 10.1293 32.728C10.6393 32.626 11.1253 32.467 11.5873 32.251L11.0743 30.847C10.3483 31.201 9.5473 31.378 8.6713 31.378C7.6693 31.378 6.7783 31.171 5.9983 30.757C5.2243 30.343 4.6123 29.758 4.1623 29.002C3.7183 28.24 3.4843 27.34 3.4603 26.302C3.4363 25.252 3.6283 24.322 4.0363 23.512C4.4443 22.702 5.0413 22.066 5.8273 21.604C6.6133 21.136 7.5643 20.902 8.6803 20.902C9.2743 20.902 9.8713 20.992 10.4713 21.172C11.0713 21.346 11.6203 21.628 12.1183 22.018C12.6223 22.408 13.0213 22.924 13.3153 23.566C13.6093 24.202 13.7473 24.985 13.7293 25.915C13.7173 26.509 13.6303 26.998 13.4683 27.382C13.3123 27.766 12.9973 27.958 12.5233 27.958C11.8093 27.958 11.4523 27.493 11.4523 26.563L11.4793 23.332H10.2733V23.656C10.0213 23.47 9.7273 23.329 9.3913 23.233C9.0553 23.131 8.7373 23.08 8.4373 23.08C7.8553 23.08 7.3273 23.209 6.8533 23.467C6.3853 23.719 6.0133 24.082 5.7373 24.556C5.4613 25.024 5.3233 25.582 5.3233 26.23C5.3233 26.854 5.4523 27.403 5.7103 27.877C5.9743 28.345 6.3373 28.711 6.7993 28.975C7.2673 29.239 7.8043 29.371 8.4103 29.371C8.7823 29.371 9.1453 29.311 9.4993 29.191C9.8593 29.065 10.1713 28.849 10.4353 28.543C10.6513 28.849 10.9423 29.083 11.3083 29.245C11.6803 29.401 12.0763 29.479 12.4963 29.479C13.4563 29.479 14.1643 29.17 14.6203 28.552C15.0763 27.928 15.3193 27.034 15.3493 25.87C15.3733 25.024 15.2473 24.214 14.9713 23.44C14.6953 22.66 14.2723 21.967 13.7023 21.361C13.1323 20.749 12.4183 20.269 11.5603 19.921C10.7023 19.567 9.7033 19.39 8.5633 19.39C7.3213 19.39 6.1903 19.66 5.1703 20.2C4.1563 20.734 3.3493 21.52 2.7493 22.558C2.1493 23.59 1.8493 24.853 1.8493 26.347C1.8493 27.289 2.0143 28.159 2.3443 28.957C2.6743 29.749 3.1423 30.439 3.7483 31.027C4.3543 31.615 5.0683 32.071 5.8903 32.395C6.7123 32.725 7.6123 32.89 8.5903 32.89ZM8.5183 27.841C8.0143 27.841 7.6243 27.7 7.3483 27.418C7.0723 27.13 6.9343 26.731 6.9343 26.221C6.9343 25.723 7.0693 25.33 7.3393 25.042C7.6093 24.748 8.0173 24.601 8.5633 24.601C9.0253 24.601 9.3823 24.739 9.6343 25.015C9.8923 25.285 10.0213 25.687 10.0213 26.221C10.0213 26.809 9.8773 27.226 9.5893 27.472C9.3013 27.718 8.9443 27.841 8.5183 27.841ZM19.3661 35.32H21.1571L26.5211 21.28H24.6131L21.8681 28.588L18.9971 21.28H17.0351L20.9681 30.955L19.3661 35.32ZM31.8005 31.27C32.7665 31.27 33.6065 31.054 34.3205 30.622C35.0345 30.184 35.5865 29.581 35.9765 28.813C36.3725 28.039 36.5705 27.145 36.5705 26.131C36.5705 25.129 36.3755 24.244 35.9855 23.476C35.5955 22.702 35.0435 22.099 34.3295 21.667C33.6155 21.229 32.7725 21.01 31.8005 21.01C30.8465 21.01 30.0125 21.226 29.2985 21.658C28.5845 22.09 28.0295 22.69 27.6335 23.458C27.2375 24.226 27.0395 25.117 27.0395 26.131C27.0395 27.133 27.2345 28.021 27.6245 28.795C28.0145 29.569 28.5635 30.175 29.2715 30.613C29.9855 31.051 30.8285 31.27 31.8005 31.27ZM31.8005 29.497C30.8945 29.497 30.2075 29.194 29.7395 28.588C29.2715 27.976 29.0375 27.157 29.0375 26.131C29.0375 25.141 29.2625 24.337 29.7125 23.719C30.1625 23.095 30.8585 22.783 31.8005 22.783C32.7185 22.783 33.4085 23.086 33.8705 23.692C34.3385 24.298 34.5725 25.111 34.5725 26.131C34.5725 27.127 34.3415 27.937 33.8795 28.561C33.4235 29.185 32.7305 29.497 31.8005 29.497ZM42.2112 31.261C42.9132 31.261 43.5342 31.135 44.0742 30.883C44.6202 30.631 45.0702 30.283 45.4242 29.839V31H47.0982V21.28H45.1992V26.338C45.1992 27.106 45.0882 27.721 44.8662 28.183C44.6442 28.639 44.3442 28.969 43.9662 29.173C43.5942 29.377 43.1832 29.479 42.7332 29.479C42.2172 29.479 41.7972 29.374 41.4732 29.164C41.1492 28.954 40.9002 28.678 40.7262 28.336C40.5522 27.994 40.4322 27.625 40.3662 27.229C40.3062 26.827 40.2762 26.437 40.2762 26.059V21.28H38.3682V26.68C38.3682 26.98 38.3952 27.328 38.4492 27.724C38.5032 28.12 38.6052 28.525 38.7552 28.939C38.9052 29.353 39.1212 29.737 39.4032 30.091C39.6912 30.439 40.0632 30.721 40.5192 30.937C40.9752 31.153 41.5392 31.261 42.2112 31.261ZM49.6224 31H51.5214V26.095C51.5214 25.525 51.6114 24.997 51.7914 24.511C51.9714 24.025 52.2894 23.635 52.7454 23.341C53.0694 23.131 53.4264 23.008 53.8164 22.972C54.2064 22.936 54.5574 22.96 54.8694 23.044V21.28C54.4314 21.196 53.9664 21.199 53.4744 21.289C52.9884 21.379 52.5624 21.559 52.1964 21.829C51.8364 22.069 51.5364 22.402 51.2964 22.828V21.28H49.6224V31ZM56.5744 31H58.4824V25.942C58.4824 25.174 58.5934 24.562 58.8154 24.106C59.0434 23.644 59.3434 23.311 59.7154 23.107C60.0874 22.903 60.4984 22.801 60.9484 22.801C61.4644 22.801 61.8844 22.906 62.2084 23.116C62.5324 23.326 62.7814 23.602 62.9554 23.944C63.1294 24.286 63.2464 24.658 63.3064 25.06C63.3724 25.456 63.4054 25.843 63.4054 26.221V31H65.3134V25.6C65.3134 25.3 65.2864 24.952 65.2324 24.556C65.1784 24.16 65.0764 23.755 64.9264 23.341C64.7764 22.927 64.5574 22.546 64.2694 22.198C63.9874 21.844 63.6184 21.559 63.1624 21.343C62.7064 21.127 62.1424 21.019 61.4704 21.019C60.7684 21.019 60.1444 21.145 59.5984 21.397C59.0584 21.649 58.6114 21.997 58.2574 22.441V21.28H56.5744V31ZM70.4026 31.27C71.9506 31.27 73.1176 30.709 73.9036 29.587V31H75.5686V25.015C75.5686 24.607 75.5506 24.226 75.5146 23.872C75.4786 23.518 75.3826 23.182 75.2266 22.864C74.9266 22.222 74.4526 21.754 73.8046 21.46C73.1626 21.16 72.4066 21.01 71.5366 21.01C70.4146 21.01 69.5146 21.256 68.8366 21.748C68.1586 22.24 67.7026 22.903 67.4686 23.737L69.2236 24.277C69.3916 23.737 69.6886 23.347 70.1146 23.107C70.5406 22.867 71.0086 22.747 71.5186 22.747C72.2746 22.747 72.8206 22.909 73.1566 23.233C73.4986 23.551 73.6846 24.046 73.7146 24.718C72.9226 24.826 72.1486 24.94 71.3926 25.06C70.6366 25.174 69.9766 25.312 69.4126 25.474C68.6626 25.714 68.0926 26.071 67.7026 26.545C67.3126 27.019 67.1176 27.622 67.1176 28.354C67.1176 28.882 67.2406 29.368 67.4866 29.812C67.7386 30.25 68.1076 30.604 68.5936 30.874C69.0856 31.138 69.6886 31.27 70.4026 31.27ZM70.7356 29.731C70.1356 29.731 69.6916 29.593 69.4036 29.317C69.1216 29.041 68.9806 28.714 68.9806 28.336C68.9806 27.952 69.1066 27.649 69.3586 27.427C69.6166 27.205 69.9376 27.028 70.3216 26.896C70.7296 26.776 71.2096 26.671 71.7616 26.581C72.3196 26.491 72.9646 26.392 73.6966 26.284C73.6906 26.512 73.6756 26.767 73.6516 27.049C73.6276 27.331 73.5766 27.583 73.4986 27.805C73.4266 28.123 73.2736 28.429 73.0396 28.723C72.8116 29.017 72.5026 29.26 72.1126 29.452C71.7286 29.638 71.2696 29.731 70.7356 29.731ZM77.8966 31H79.7866V24.925C79.7866 24.265 79.9666 23.731 80.3266 23.323C80.6926 22.915 81.1726 22.711 81.7666 22.711C82.3666 22.711 82.8436 22.915 83.1976 23.323C83.5576 23.725 83.7376 24.277 83.7376 24.979L83.7286 31H85.6096L85.6186 24.925C85.6186 24.193 85.8136 23.641 86.2036 23.269C86.5996 22.897 87.0646 22.711 87.5986 22.711C88.1866 22.711 88.6606 22.909 89.0206 23.305C89.3806 23.701 89.5606 24.247 89.5606 24.943L89.5516 31H91.4326L91.4416 24.493C91.4416 23.449 91.1506 22.612 90.5686 21.982C89.9926 21.352 89.1826 21.037 88.1386 21.037C87.5026 21.037 86.9266 21.178 86.4106 21.46C85.8946 21.736 85.4866 22.12 85.1866 22.612C84.9286 22.12 84.5596 21.736 84.0796 21.46C83.6056 21.178 83.0326 21.037 82.3606 21.037C81.7786 21.037 81.2446 21.154 80.7586 21.388C80.2786 21.616 79.8826 21.928 79.5706 22.324V21.28H77.8966V31ZM97.9666 31.27C98.9086 31.27 99.7636 31.033 100.532 30.559C101.3 30.079 101.873 29.404 102.251 28.534L100.406 27.949C99.9136 28.981 99.0706 29.497 97.8766 29.497C97.0606 29.497 96.4186 29.251 95.9506 28.759C95.4826 28.267 95.2096 27.571 95.1316 26.671H102.377C102.443 25.507 102.305 24.502 101.963 23.656C101.621 22.81 101.102 22.159 100.406 21.703C99.7096 21.241 98.8666 21.01 97.8766 21.01C96.9286 21.01 96.0976 21.223 95.3836 21.649C94.6696 22.075 94.1116 22.678 93.7096 23.458C93.3136 24.238 93.1156 25.159 93.1156 26.221C93.1156 27.223 93.3166 28.105 93.7186 28.867C94.1266 29.623 94.6936 30.214 95.4196 30.64C96.1516 31.06 97.0006 31.27 97.9666 31.27ZM97.9486 22.675C99.4186 22.675 100.253 23.518 100.451 25.204H95.1766C95.2966 24.382 95.5876 23.755 96.0496 23.323C96.5116 22.891 97.1446 22.675 97.9486 22.675ZM104.368 31H106.357V29.011H104.368V31ZM113.353 31.27C114.397 31.27 115.285 31.018 116.017 30.514C116.749 30.01 117.274 29.281 117.592 28.327L115.684 27.877C115.486 28.399 115.198 28.801 114.82 29.083C114.448 29.359 113.959 29.497 113.353 29.497C112.465 29.497 111.793 29.188 111.337 28.57C110.887 27.952 110.659 27.142 110.653 26.14C110.659 25.168 110.878 24.367 111.31 23.737C111.748 23.101 112.429 22.783 113.353 22.783C113.899 22.783 114.382 22.936 114.802 23.242C115.228 23.542 115.534 23.965 115.72 24.511L117.592 23.971C117.352 23.059 116.854 22.339 116.098 21.811C115.348 21.277 114.442 21.01 113.38 21.01C112.402 21.01 111.559 21.229 110.851 21.667C110.149 22.105 109.609 22.711 109.231 23.485C108.853 24.253 108.661 25.138 108.655 26.14C108.661 27.124 108.847 28.003 109.213 28.777C109.585 29.551 110.119 30.16 110.815 30.604C111.517 31.048 112.363 31.27 113.353 31.27ZM123.382 31.27C124.348 31.27 125.188 31.054 125.902 30.622C126.616 30.184 127.168 29.581 127.558 28.813C127.954 28.039 128.152 27.145 128.152 26.131C128.152 25.129 127.957 24.244 127.567 23.476C127.177 22.702 126.625 22.099 125.911 21.667C125.197 21.229 124.354 21.01 123.382 21.01C122.428 21.01 121.594 21.226 120.88 21.658C120.166 22.09 119.611 22.69 119.215 23.458C118.819 24.226 118.621 25.117 118.621 26.131C118.621 27.133 118.816 28.021 119.206 28.795C119.596 29.569 120.145 30.175 120.853 30.613C121.567 31.051 122.41 31.27 123.382 31.27ZM123.382 29.497C122.476 29.497 121.789 29.194 121.321 28.588C120.853 27.976 120.619 27.157 120.619 26.131C120.619 25.141 120.844 24.337 121.294 23.719C121.744 23.095 122.44 22.783 123.382 22.783C124.3 22.783 124.99 23.086 125.452 23.692C125.92 24.298 126.154 25.111 126.154 26.131C126.154 27.127 125.923 27.937 125.461 28.561C125.005 29.185 124.312 29.497 123.382 29.497ZM130.121 31H132.011V24.925C132.011 24.265 132.191 23.731 132.551 23.323C132.917 22.915 133.397 22.711 133.991 22.711C134.591 22.711 135.068 22.915 135.422 23.323C135.782 23.725 135.962 24.277 135.962 24.979L135.953 31H137.834L137.843 24.925C137.843 24.193 138.038 23.641 138.428 23.269C138.824 22.897 139.289 22.711 139.823 22.711C140.411 22.711 140.885 22.909 141.245 23.305C141.605 23.701 141.785 24.247 141.785 24.943L141.776 31H143.657L143.666 24.493C143.666 23.449 143.375 22.612 142.793 21.982C142.217 21.352 141.407 21.037 140.363 21.037C139.727 21.037 139.151 21.178 138.635 21.46C138.119 21.736 137.711 22.12 137.411 22.612C137.153 22.12 136.784 21.736 136.304 21.46C135.83 21.178 135.257 21.037 134.585 21.037C134.003 21.037 133.469 21.154 132.983 21.388C132.503 21.616 132.107 21.928 131.795 22.324V21.28H130.121V31Z" fill="white"/>
<rect width="1440" height="5750" transform="translate(-196 -638)" fill="#202020"/>
<rect x="-100" y="-23" width="400" height="64" rx="4" fill="#9D9D9D"/>
<path d="M20.6429 1H2.35715C1.72597 1 1.21429 1.51167 1.21429 2.14286V15.8571C1.21429 16.4883 1.72597 17 2.35715 17H20.6429C21.274 17 21.7857 16.4883 21.7857 15.8571V2.14286C21.7857 1.51167 21.274 1 20.6429 1Z" stroke="white" stroke-width="2" stroke-linecap="round"/>
<path d="M1.21429 2.71436L11.5 9.00007L21.7857 2.71436" stroke="white" stroke-width="2" stroke-linecap="round"/>
</svg>
